<svg width="32" height="32" viewBox="0 0 32 32" xmlns="http://www.w3.org/2000/svg">
  <circle cx="16" cy="16" r="16" fill="#00bfa5"/>
  <g transform="translate(16, 16) scale(0.65) translate(-16, -16)">
    <path d="M15.217 29.2015C15.752 29.5 16.3957 29.4835 16.9275 29.1795C20.5106 27.1318 26.7369 22.4179 29.1822 16.2948C32.7713 8.3224 24.3441 1.95834 18.5197 6.5356C17.9122 7.01307 17.1483 7.55954 16.6226 8.07719C16.3849 8.31124 15.966 8.33511 15.7193 8.11061C15.0281 7.48177 13.9479 6.67511 13.2542 6.20577C8.28887 2.84639 -0.74574 7.27463 3.1081 16.7255C4.51986 20.9677 11.2474 26.9862 15.217 29.2015Z" fill="#fff"/>
  </g>
</svg>
